<svg width="300" height="112" viewBox="0 0 300 112" fill="none" xmlns="http://www.w3.org/2000/svg">
<path d="M115.474 13.8891L146.03 45.2756V14.8422H151.109V57.34L120.553 25.9535V56.7545H115.474V13.8891Z" fill="#1D242B"/>
<path d="M156.039 14.8558H179.01V19.6489H161.363V31.3865H178.493V36.166H161.363V52.0159H179.01V56.7954H156.039V14.8558Z" fill="#1D242B"/>
<path d="M199.612 45.1122L212.003 14.8558H217.695L199.612 57.8983L181.475 14.8558H187.166L199.612 45.1122Z" fill="#1D242B"/>
<path d="M225.076 14.8558H220.146V56.8771H225.076V14.8558Z" fill="#1D242B"/>
<path d="M250.838 23.1486C250.216 21.9252 249.258 20.9049 248.076 20.2077C246.894 19.5105 245.537 19.1656 244.166 19.2133C240.829 19.2133 237.167 21.4465 237.167 25.0413C237.167 28.2548 240.394 29.9433 242.995 30.9237L246.004 32.0675C251.941 34.3551 256.393 37.5142 256.393 44.4315C256.393 51.8935 250.511 57.2312 243.008 57.2312C239.814 57.2481 236.727 56.0841 234.339 53.9627C231.951 51.8414 230.432 48.9124 230.072 45.7387L235.356 44.6494C235.384 46.7476 236.246 48.7484 237.75 50.2116C239.254 51.6748 241.278 52.4806 243.376 52.4517C245.474 52.4229 247.475 51.5616 248.938 50.0575C250.401 48.5535 251.207 46.5297 251.178 44.4315C251.178 40.0197 247.57 38.1133 243.961 36.6427L241.006 35.4036C236.227 33.3883 231.897 30.7194 231.897 25.0004C231.897 18.3555 237.902 14.3794 244.234 14.3794C246.439 14.324 248.616 14.8782 250.526 15.981C252.436 17.0838 254.005 18.6923 255.059 20.6295L250.838 23.1486Z" fill="#1D242B"/>
<path d="M43 0V41.9804H84.8987V29.6572H60.2524V12.3231H84.8987V0H43Z" fill="#D6D6D7"/>
<path d="M104.615 56.8091V14.8287H62.7168V27.1519H87.3631V44.486H62.7168V56.8091H104.615Z" fill="#005D67"/>
<path d="M6.35207 111.058C5.54579 111.058 4.80261 110.967 4.12254 110.784C3.44246 110.608 2.83249 110.386 2.29263 110.119C1.75979 109.845 1.30056 109.564 0.914951 109.275C0.529339 108.987 0.224356 108.734 0 108.516L1.74577 105.689C1.97713 105.893 2.25407 106.122 2.57658 106.375C2.8991 106.628 3.26017 106.87 3.6598 107.103C4.05944 107.328 4.49062 107.517 4.95335 107.672C5.4231 107.82 5.92089 107.894 6.44672 107.894C6.9375 107.894 7.36868 107.816 7.74027 107.662C8.11887 107.507 8.41684 107.278 8.63419 106.976C8.85153 106.667 8.9602 106.283 8.9602 105.826C8.9602 105.411 8.87256 105.06 8.69729 104.771C8.52201 104.476 8.2626 104.212 7.91905 103.98C7.58252 103.741 7.16536 103.509 6.66757 103.284C6.17679 103.052 5.6159 102.799 4.9849 102.525C4.51516 102.314 4.06645 102.075 3.63877 101.807C3.2181 101.533 2.84301 101.217 2.51348 100.858C2.18396 100.5 1.92105 100.095 1.72473 99.6452C1.53543 99.1881 1.44078 98.6783 1.44078 98.1157C1.44078 97.4477 1.574 96.8078 1.84042 96.196C2.10684 95.5842 2.48544 95.0393 2.97622 94.5611C3.47401 94.0829 4.06294 93.7032 4.74302 93.4219C5.43011 93.1406 6.19432 93 7.03565 93C7.66665 93 8.29765 93.0844 8.92865 93.2531C9.55965 93.4219 10.1486 93.6434 10.6955 93.9177C11.2423 94.1919 11.7051 94.4908 12.0837 94.8142L10.6639 97.4934C10.3624 97.2332 10.0189 97.0012 9.63327 96.7972C9.25467 96.5863 8.84803 96.4175 8.41334 96.2909C7.98566 96.1644 7.55097 96.1011 7.10927 96.1011C6.61148 96.1011 6.18731 96.189 5.83675 96.3648C5.49321 96.5406 5.22679 96.7761 5.03749 97.0715C4.8552 97.3598 4.76405 97.6833 4.76405 98.0419C4.76405 98.3372 4.82365 98.5904 4.94284 98.8013C5.06904 99.0053 5.24431 99.1846 5.46867 99.3393C5.69303 99.4869 5.96295 99.6311 6.27845 99.7717C6.59395 99.9053 6.941 100.049 7.3196 100.204C8.13289 100.549 8.86906 100.89 9.5281 101.227C10.1871 101.565 10.7515 101.941 11.2213 102.356C11.691 102.764 12.0486 103.242 12.294 103.79C12.5464 104.339 12.6726 104.993 12.6726 105.752C12.6726 106.863 12.4062 107.816 11.8733 108.611C11.3475 109.405 10.6113 110.014 9.66482 110.436C8.71832 110.851 7.61407 111.058 6.35207 111.058Z" fill="#36989C"/>
<path d="M23.1782 110.72V93.3164H32.8325V96.312H26.5856V100.5H32.5801V103.495H26.5856V107.725H32.8325V110.72H23.1782Z" fill="#36989C"/>
<path d="M51.8269 111.058C50.5158 111.058 49.2853 110.826 48.1355 110.362C46.9857 109.898 45.9726 109.254 45.0962 108.432C44.2198 107.602 43.5362 106.642 43.0454 105.552C42.5547 104.462 42.3093 103.291 42.3093 102.04C42.3093 100.781 42.5547 99.6065 43.0454 98.5165C43.5432 97.4196 44.2268 96.4597 45.0962 95.637C45.9726 94.8072 46.9822 94.1603 48.125 93.6962C49.2748 93.2321 50.5018 93 51.8058 93C52.8715 93 53.8846 93.1512 54.8452 93.4536C55.8127 93.7559 56.64 94.1532 57.3271 94.6455L55.8548 97.5461C55.385 97.1734 54.8136 96.8816 54.1405 96.6707C53.4675 96.4597 52.7629 96.3542 52.0267 96.3542C51.1643 96.3542 50.3651 96.4984 49.6289 96.7867C48.8997 97.075 48.2617 97.4758 47.7148 97.9891C47.175 98.5025 46.7543 99.1037 46.4529 99.7928C46.1514 100.482 46.0006 101.227 46.0006 102.029C46.0006 102.831 46.1514 103.576 46.4529 104.265C46.7543 104.954 47.175 105.555 47.7148 106.069C48.2617 106.582 48.8997 106.983 49.6289 107.271C50.3651 107.56 51.1643 107.704 52.0267 107.704C52.7629 107.704 53.4675 107.598 54.1405 107.387C54.8136 107.176 55.385 106.885 55.8548 106.512L57.3271 109.412C56.668 109.891 55.8583 110.284 54.8977 110.594C53.9372 110.903 52.9136 111.058 51.8269 111.058Z" fill="#36989C"/>
<path d="M73.4172 111.058C71.2438 111.058 69.5997 110.513 68.4849 109.423C67.3701 108.326 66.8127 106.702 66.8127 104.55V93.3164H70.2201V103.569C70.2201 105.039 70.469 106.097 70.9668 106.744C71.4716 107.384 72.2884 107.704 73.4172 107.704C74.546 107.704 75.3593 107.384 75.8571 106.744C76.3619 106.097 76.6143 105.039 76.6143 103.569V93.3164H80.0217V104.55C80.0217 106.702 79.4643 108.326 78.3495 109.423C77.2418 110.513 75.5977 111.058 73.4172 111.058Z" fill="#36989C"/>
<path d="M91.4749 110.72V93.3164H97.3853C98.5702 93.3164 99.5973 93.5274 100.467 93.9493C101.343 94.3642 102.02 94.9654 102.496 95.753C102.98 96.5335 103.222 97.4758 103.222 98.5798C103.222 99.4518 103.068 100.239 102.759 100.943C102.451 101.639 102.009 102.226 101.434 102.704C100.859 103.182 100.162 103.537 99.3414 103.769L105.02 110.72H100.698L95.6921 104.16H94.8823V110.72H91.4749ZM94.8823 101.312H96.3336C97.0418 101.312 97.6412 101.21 98.132 101.006C98.6228 100.802 98.9979 100.503 99.2573 100.109C99.5237 99.7084 99.6569 99.2303 99.6569 98.6748C99.6569 97.8309 99.366 97.184 98.784 96.7339C98.2091 96.2769 97.3923 96.0483 96.3336 96.0483H94.8823V101.312Z" fill="#36989C"/>
<path d="M114.364 110.72V93.3164H117.771V110.72H114.364Z" fill="#36989C"/>
<path d="M130.963 110.72V96.3331H126.567V93.3164H138.766V96.3331H134.36V110.72H130.963Z" fill="#36989C"/>
<path d="M152.438 110.72V102.968L146.138 93.3164H150.24L154.141 99.4869L158.043 93.3164H162.145L155.845 102.968V110.72H152.438Z" fill="#36989C"/>
<path d="M187.163 110.72V93.3164H196.912V96.312H189.75L190.571 95.5631V101.449L189.75 100.5H196.439V103.495H189.75L190.571 102.546V110.72H187.163Z" fill="#36989C"/>
<path d="M214.849 111.058C213.636 111.058 212.5 110.826 211.442 110.362C210.383 109.898 209.454 109.254 208.655 108.432C207.856 107.602 207.228 106.642 206.772 105.552C206.324 104.455 206.099 103.281 206.099 102.029C206.099 100.777 206.324 99.6065 206.772 98.5165C207.228 97.4196 207.856 96.4597 208.655 95.637C209.454 94.8072 210.383 94.1603 211.442 93.6962C212.5 93.2321 213.636 93 214.849 93C216.062 93 217.198 93.2321 218.257 93.6962C219.315 94.1603 220.244 94.8072 221.043 95.637C221.843 96.4597 222.467 97.4196 222.915 98.5165C223.371 99.6065 223.599 100.777 223.599 102.029C223.599 103.281 223.371 104.455 222.915 105.552C222.467 106.642 221.843 107.602 221.043 108.432C220.244 109.254 219.315 109.898 218.257 110.362C217.198 110.826 216.062 111.058 214.849 111.058ZM214.839 107.767C215.582 107.767 216.262 107.626 216.879 107.345C217.496 107.064 218.032 106.667 218.488 106.153C218.944 105.64 219.298 105.035 219.55 104.339C219.803 103.636 219.929 102.866 219.929 102.029C219.929 101.192 219.803 100.426 219.55 99.7295C219.298 99.0263 218.944 98.4181 218.488 97.9048C218.032 97.3914 217.496 96.9941 216.879 96.7128C216.262 96.4316 215.582 96.2909 214.839 96.2909C214.109 96.2909 213.433 96.4316 212.809 96.7128C212.192 96.9941 211.656 97.3914 211.2 97.9048C210.744 98.4181 210.39 99.0263 210.138 99.7295C209.892 100.426 209.77 101.192 209.77 102.029C209.77 102.866 209.892 103.636 210.138 104.339C210.39 105.035 210.744 105.64 211.2 106.153C211.656 106.667 212.192 107.064 212.809 107.345C213.433 107.626 214.109 107.767 214.839 107.767Z" fill="#36989C"/>
<path d="M234.071 110.72V93.3164H239.981C241.166 93.3164 242.193 93.5274 243.062 93.9493C243.939 94.3642 244.615 94.9654 245.092 95.753C245.576 96.5335 245.818 97.4758 245.818 98.5798C245.818 99.4518 245.664 100.239 245.355 100.943C245.047 101.639 244.605 102.226 244.03 102.704C243.455 103.182 242.757 103.537 241.937 103.769L247.616 110.72H243.294L238.288 104.16H237.478V110.72H234.071ZM237.478 101.312H238.929C239.637 101.312 240.237 101.21 240.728 101.006C241.218 100.802 241.594 100.503 241.853 100.109C242.119 99.7084 242.253 99.2303 242.253 98.6748C242.253 97.8309 241.962 97.184 241.38 96.7339C240.805 96.2769 239.988 96.0483 238.929 96.0483H237.478V101.312Z" fill="#36989C"/>
<path d="M263.269 111.058C261.096 111.058 259.452 110.513 258.337 109.423C257.222 108.326 256.665 106.702 256.665 104.55V93.3164H260.072V103.569C260.072 105.039 260.321 106.097 260.819 106.744C261.324 107.384 262.141 107.704 263.269 107.704C264.398 107.704 265.212 107.384 265.709 106.744C266.214 106.097 266.467 105.039 266.467 103.569V93.3164H269.874V104.55C269.874 106.702 269.317 108.326 268.202 109.423C267.094 110.513 265.45 111.058 263.269 111.058Z" fill="#36989C"/>
<path d="M280.528 110.72L282.253 93.3164H285.87L290.014 104.202L294.158 93.3164H297.775L299.5 110.72H296.093L295.02 99.4553L291.055 110.288H288.962L285.008 99.4553L283.925 110.72H280.528Z" fill="#36989C"/>
</svg>
