<svg width="97" height="92" viewBox="0 0 97 92" fill="none" xmlns="http://www.w3.org/2000/svg">
<path d="M68.9167 17H8.08333C4.72361 17 2 19.7236 2 23.0833V83.9167C2 87.2765 4.72361 90 8.08333 90H68.9167C72.2765 90 75 87.2765 75 83.9167V23.0833C75 19.7236 72.2765 17 68.9167 17Z" stroke="#000" stroke-width="3"/>
<path d="M26.3303 51.4716C31.9298 51.4716 36.4692 46.9322 36.4692 41.3327C36.4692 35.7332 31.9298 31.1938 26.3303 31.1938C20.7308 31.1938 16.1914 35.7332 16.1914 41.3327C16.1914 46.9322 20.7308 51.4716 26.3303 51.4716Z" stroke="#000" stroke-width="3"/>
<path d="M75 77.8342L55.3716 59.9902C53.8516 58.6084 51.532 58.6026 50.0051 59.9768L35.0281 73.4561C33.5344 74.8005 31.275 74.8278 29.7491 73.5199L20.6584 65.7279C19.235 64.5078 17.1551 64.4401 15.6553 65.5649L2 75.8064" stroke="#000" stroke-width="3"/>
<path d="M21.9692 7.05909C22.2688 3.71276 25.2245 1.24289 28.5708 1.54252L89.1617 6.96769C92.5082 7.26732 94.978 10.223 94.6783 13.5693L89.2532 74.1602C88.9535 77.5067 85.998 79.9764 82.6515 79.6768" stroke="#000" stroke-width="3"/>
</svg>
