<svg xmlns="http://www.w3.org/2000/svg" width="158" height="36" viewBox="0 0 158 36"><g fill="#FFF"><path d="M69.9 21.6H59.5v2.3l.3-.1v-.1c.1-.3.7-1 1.5-1h2.3v12.2h2.3V22.7h2.4c.8 0 1.3.4 1.4.8v.1h.3l-.1-2zM2.4 20.8C.8 22.4 0 24.5 0 26.7c0 2.4 1 4.6 2.7 6.2 1.7 1.5 4 2.3 6.4 2.3 1.3 0 3.7-.2 6.2-1.7l.1-.1.3-3.4h-.4l-.1.1c-1.8 3.7-4.5 3.7-5.6 3.7-4.7.1-6.9-3.8-6.9-7.4 0-3.5 2.1-7 6.9-7 1.5 0 4.1.4 5.5 3.6l.1.2.4-.1-.3-3.6-.1-.1c-2.2-.9-4-1.4-5.7-1.4-3 0-5.4 1-7.1 2.8zM17.9 21.6l-.1.3h.1c.2.1.4.6.4 1.2V35h2.2v-6.1h1c.9.1 1.2.6 1.7 1.3l.1.1.3.4c.5.8 1.1 1.9 1.8 2.9.5.7 1.1 1.1 1.8 1.3.6.1 1.6.1 2.1-.1l.5-.1.2-.1-.7-.2c-.3-.1-.7-.3-1.3-.9-.3-.4-.9-1.3-1.8-2.7l-.9-1.4c-.2-.3-.6-.9-1.3-1.2 1.3-.4 2.5-1.6 2.5-3.2 0-.5-.1-1.4-.9-2.2-.8-.8-2.2-1.2-3.9-1.2h-3.8zm3.9 1.2c2.3.1 2.3 2 2.3 2.2 0 2-1.5 2.6-2.7 2.6h-.9v-4.9c.2.1.7.1 1.3.1zM40.8 21.6v.3c.2.1.4.6.4 1V35H45c2.5 0 4.6-.8 6-2.3 1.2-1.2 1.8-2.9 1.8-4.6 0-1.1-.3-2.6-1.3-3.9-1.3-1.7-3.4-2.6-6.2-2.6h-4.5zm2.6 1.3h1.2c.3 0 1.1 0 1.7.1 3.7.6 4.2 3.7 4.2 5.1 0 1.1-.2 2.7-1.1 3.9-.9 1.2-2.3 1.8-4.3 1.8-.4 0-1 0-1.7-.1V22.9zM57.5 21.6h-2.6v.3h.1c.2.1.4.6.4 1.1v12h2.2l-.1-13.4zM102.6 21.6H100v.3c.2.1.4.6.4 1.1v12h2.2V21.6zM37.9 21.6h-7.5l.1.3c.2.1.4.6.4 1.2V35h7.5l.6-2.4-.3-.1-.1.2c-.6.9-1.2 1.1-3.4 1.1-.8 0-1.5-.1-2-.1v-5.5H37V27h-3.8v-4.2c.1 0 3.1.1 3.1.1.7 0 1.5.7 1.5 1.1v.1h.3l-.2-2.5zM133.7 21.6h-7.5v.3h.1c.2.1.4.6.4 1.2V35h7.5l.6-2.4-.3-.1-.1.1c-.6.9-1.2 1.1-3.4 1.1-.8 0-1.5-.1-2-.1v-5.5h3.8v-1.2H129v-4.2c.1 0 3.1.1 3.1.1.8 0 1.5.7 1.5 1.1v.1h.3l-.2-2.4zM76.5 19.1c-.8.6-1.7 1.6-1.7 3.3v.1c0 2.2 1.4 3.3 3.6 4.4.1.1.2.2.8.4 1.8.9 3.2 1.6 3.2 3.5 0 .7-.2 1.6-.9 2.2-.6.6-1.3.8-2.3.8-2.8-.1-3.8-2.5-4.1-3.6L75 30l-.4.1.1 3.5.2.1c.9.5 2.4 1.4 4.6 1.4 1.5 0 3.1-.6 4.1-1.7.9-.9 1.5-2.1 1.5-3.4 0-2.8-2.1-3.9-4.2-5l-.4-.2c-2.2-1.1-3.2-1.8-3.2-3.2 0-.9.7-2.5 2.6-2.4 2.2 0 3.4 1.7 3.6 2.7l.1.2.4-.1-.2-3h-.3c-1.3-.9-2.9-1-3.6-1-1.2 0-2.5.4-3.4 1.1zM106.2 25c0 1.8 1.1 2.8 2.9 3.7l.7.3c1.5.7 2.3 1.2 2.3 2.5 0 .2-.1 1.1-.7 1.7-.4.4-1 .6-1.8.6-2.1 0-2.9-1.7-3.2-2.7l-.1-.2-.4.1.1 2.8.1.1c.7.4 1.9 1.1 3.6 1.1 1.2 0 2.5-.5 3.3-1.3.7-.7 1.1-1.7 1.1-2.7 0-2.3-1.6-3.2-3.3-4.1l-.3-.2c-1.8-.9-2.5-1.3-2.5-2.4 0-.7.6-1.8 2-1.8 1.8 0 2.6 1.3 2.7 2l.1.2.4-.1-.1-2.5-.1-.1c-1-.7-2.3-.8-2.8-.8-1.9.3-4 1.5-4 3.8zM116.2 25c0 1.8 1.1 2.8 2.9 3.7l.7.3c1.4.7 2.3 1.2 2.3 2.5 0 .2-.1 1.1-.7 1.7-.4.4-1 .6-1.8.6-2.1 0-2.9-1.7-3.2-2.7l-.1-.2-.4.1.1 2.8.1.1c.7.4 1.9 1.1 3.6 1.1 1.2 0 2.5-.5 3.3-1.3.7-.7 1.1-1.7 1.1-2.7 0-2.3-1.6-3.2-3.3-4.1l-.3-.2c-1.8-.9-2.5-1.3-2.5-2.4 0-.4.2-.9.6-1.2.3-.3.9-.6 1.5-.6 1.8 0 2.6 1.3 2.7 2l.1.2.4-.1-.1-2.5-.1-.1c-1-.7-2.3-.8-2.8-.8-2 .3-4.1 1.5-4.1 3.8zM97 21.6h-1.8l.1.3c.1.1.4.3.4 1.1v7.6c0 1.4-.6 3.2-3.1 3.2s-3-1.4-3-3.6v-8.6h-2.8v.3c.2.1.5.4.5 1.2v7.1c0 4.5 2.9 5 5.1 5 1.1 0 4.6-.3 4.6-4.5v-9.1zM153 17.7c1.6.5 3.2 1.2 5 2.2C153.7 12.8 146 5 138.4 0c2 2 5.1 6.2 5.9 10.7 3.2 2.3 6.1 4.6 8.7 7z"/><path d="M153 17.7c-3.7-1.2-6.9-1.2-9.2-1 .8-2 .9-4 .6-6-5.7-4.1-12-7.7-18.1-10.3 4.5 3 9.4 11.7 11.4 21 4.4-1.3 11.2-2.2 19.9.7-1.4-1.3-2.9-2.9-4.6-4.4z"/></g></svg>