<svg width="18" height="17" viewBox="0 0 18 17" fill="none" xmlns="http://www.w3.org/2000/svg">
<g clip-path="url(#clip0)">
<path d="M4.69629 8.09997C4.69629 7.29734 4.91742 6.54547 5.30161 5.90168V3.17084H2.57077C1.48692 4.57847 0.899414 6.29399 0.899414 8.09997C0.899414 9.90595 1.48692 11.6215 2.57077 13.0291H5.30161V10.2983C4.91742 9.65447 4.69629 8.9026 4.69629 8.09997V8.09997Z" fill="#FBBD00"/>
<path d="M8.99902 12.4032L7.10059 14.3016L8.99902 16.2C10.805 16.2 12.5205 15.6125 13.9282 14.5287V11.8008H11.2002C10.5508 12.1863 9.79577 12.4032 8.99902 12.4032V12.4032Z" fill="#31AA52"/>
<path d="M5.30115 10.2982L2.57031 13.029C2.7849 13.3077 3.01857 13.5746 3.27141 13.8275C4.80129 15.3573 6.83537 16.1999 8.99896 16.1999V12.403C7.42883 12.403 6.05268 11.5576 5.30115 10.2982Z" fill="#31AA52"/>
<path d="M17.099 8.09998C17.099 7.60718 17.0544 7.11346 16.9664 6.63259L16.8952 6.24344H8.99902V10.0403H12.8418C12.4687 10.7826 11.8949 11.3883 11.2002 11.8007L13.9281 14.5287C14.2068 14.3141 14.4737 14.0804 14.7266 13.8276C16.2565 12.2977 17.099 10.2636 17.099 8.09998V8.09998Z" fill="#3C79E6"/>
<path d="M12.0418 5.05722L12.3774 5.3928L15.0622 2.70803L14.7266 2.37245C13.1967 0.842558 11.1626 0 8.99902 0L7.10059 1.89844L8.99902 3.79687C10.1484 3.79687 11.229 4.24446 12.0418 5.05722Z" fill="#EB4132"/>
<path d="M8.99899 3.79687V0C6.83541 0 4.80132 0.842558 3.27141 2.37241C3.01857 2.62525 2.7849 2.89214 2.57031 3.17086L5.30115 5.9017C6.05271 4.64231 7.42886 3.79687 8.99899 3.79687V3.79687Z" fill="#EB4132"/>
</g>
<defs>
<clipPath id="clip0">
<rect width="16.2" height="16.2" fill="white" transform="translate(0.899414)"/>
</clipPath>
</defs>
</svg>
