<svg width="18" height="17" viewBox="0 0 18 17" fill="none" xmlns="http://www.w3.org/2000/svg">
<path d="M17.3036 16.8229V16.8222H17.3077V10.7285C17.3077 7.74741 16.666 5.45102 13.1809 5.45102C11.5055 5.45102 10.3812 6.37041 9.92218 7.24202H9.87372V5.72933H6.56934V16.8222H10.0101V11.3294C10.0101 9.88318 10.2843 8.48472 12.0753 8.48472C13.84 8.48472 13.8663 10.1352 13.8663 11.4222V16.8229H17.3036Z" fill="#006699"/>
<path d="M0.966797 5.72986H4.41172V16.8227H0.966797V5.72986Z" fill="#006699"/>
<path d="M2.68761 0.207428C1.58615 0.207428 0.692383 1.1012 0.692383 2.20266C0.692383 3.30412 1.58615 4.21658 2.68761 4.21658C3.78907 4.21658 4.68284 3.30412 4.68284 2.20266C4.68215 1.1012 3.78838 0.207428 2.68761 0.207428V0.207428Z" fill="#006699"/>
</svg>
