<svg width="36" height="36" viewBox="0 0 36 36" fill="none" xmlns="http://www.w3.org/2000/svg">
<circle cx="18" cy="18" r="18" fill="#7EBDE9"/>
<circle cx="14" cy="21" r="4.25" stroke="white" stroke-width="1.5"/>
<path d="M18.4689 18.755C20.2333 18.1465 21.5 16.4718 21.5 14.5C21.5 12.0138 19.4862 10 17 10C14.5138 10 12.5 12.0138 12.5 14.5C12.5 15.0798 12.6095 15.6339 12.809 16.1427C13.1907 16.0495 13.5896 16 14 16C14.1383 16 14.2753 16.0056 14.4107 16.0166C14.1497 15.5717 14 15.0534 14 14.5C14 12.8425 15.3425 11.5 17 11.5C18.6575 11.5 20 12.8425 20 14.5C20 15.9783 18.9321 17.206 17.5253 17.4542C17.9055 17.8323 18.2253 18.2712 18.4689 18.755Z" fill="white"/>
<path d="M18.9123 20.0629C18.9699 20.3664 19 20.6797 19 21C19 21.236 18.9837 21.4681 18.952 21.6954C19.404 21.913 19.8206 22.2066 20.182 22.568C21.0259 23.4119 21.5 24.5565 21.5 25.75H23C23 24.1587 22.3679 22.6326 21.2426 21.5074C20.5816 20.8463 19.7821 20.3554 18.9123 20.0629Z" fill="white"/>
<path d="M25.7889 22.4918C25.1615 21.5209 24.267 20.7519 23.213 20.2773L22.5972 21.6453C23.3878 22.0012 24.0587 22.578 24.5293 23.3062C24.9999 24.0344 25.2502 24.883 25.25 25.75H26.75C26.7501 24.594 26.4164 23.4626 25.7889 22.4918Z" fill="white"/>
<path d="M24.5533 13.3294C24.0987 12.6502 23.4526 12.1212 22.697 11.8098L22.2808 13.267C22.7851 13.5136 23.1971 13.9153 23.4563 14.4133C23.7155 14.9112 23.8082 15.4792 23.7209 16.0337C23.6335 16.5882 23.3707 17.1002 22.971 17.4943C22.5713 17.8885 22.0557 18.1442 21.5 18.2238V19.7335C22.525 19.6401 23.478 19.1668 24.1719 18.4066C24.8658 17.6464 25.2503 16.6542 25.25 15.625C25.2503 14.8077 25.0078 14.0087 24.5533 13.3294Z" fill="white"/>
<path d="M14 19V23" stroke="white" stroke-width="1.5"/>
<path d="M16 21L12 21" stroke="white" stroke-width="1.5"/>
</svg>
