<svg xmlns="http://www.w3.org/2000/svg" xmlns:xlink="http://www.w3.org/1999/xlink" viewBox="0 0 1107.17 329.02"><defs><clipPath id="a" transform="translate(-28.83 -17.33)"><rect x="-1356.03" y="-1173.48" width="3044.94" height="4306.24" style="fill:none"/></clipPath><linearGradient id="b" x1="-438.11" y1="406.16" x2="-460.94" y2="433.63" gradientTransform="matrix(1.71, 0, 0, -1.71, 839.09, 980.49)" gradientUnits="userSpaceOnUse"><stop offset="0" stop-color="#0019ce"/><stop offset="1" stop-color="#00a4ce" stop-opacity="0.5"/></linearGradient><linearGradient id="c" x1="-307.4" y1="505.89" x2="-307.4" y2="505.89" xlink:href="#b"/><linearGradient id="d" x1="-444.35" y1="462.94" x2="-412.95" y2="477.16" gradientTransform="matrix(1.71, 0, 0, -1.71, 839.09, 980.49)" gradientUnits="userSpaceOnUse"><stop offset="0"/><stop offset="1" stop-opacity="0"/></linearGradient><linearGradient id="e" x1="-297.21" y1="463.25" x2="-413.14" y2="518.1" gradientTransform="matrix(1.71, 0, 0, -1.71, 839.09, 980.49)" gradientUnits="userSpaceOnUse"><stop offset="0" stop-color="#040d1a"/><stop offset="1" stop-color="#fd110d" stop-opacity="0.99"/></linearGradient><linearGradient id="f" x1="-430.18" y1="441.18" x2="-410.44" y2="469.45" xlink:href="#b"/><linearGradient id="g" x1="-443.6" y1="529.48" x2="-446.77" y2="564.39" gradientTransform="matrix(1.71, 0, 0, -1.71, 839.09, 980.49)" gradientUnits="userSpaceOnUse"><stop offset="0" stop-color="#0b4ad0"/><stop offset="1" stop-color="#0bb7d0" stop-opacity="0"/></linearGradient></defs><title>swisscom</title><g style="clip-path:url(#a)"><path d="M808.44,259c-33.31,0-55.08-16.66-55.08-56.46,0-33.72,18.62-59.79,59.6-59.79,8.82,0,20,1.77,27.44,4.72l-6.27,23.52c-6.66-2.35-13.13-4.13-20.39-4.13-21,0-29.6,13.73-29.6,34.31,0,20,7.84,33.33,28.42,33.33,9.61,0,16.28-2.35,22.74-4.9l3.33,23.12C833,256.2,821,259,808.44,259ZM539.52,130.56c10.18,0,18.41-7.85,18.41-17.84,0-9.8-8.23-17.25-18.41-17.25-9.41,0-17.84,7.45-17.84,17.25A18,18,0,0,0,539.52,130.56ZM523.63,257h28.82V144.67c-13.53-1.37-28.82,2.36-28.82,23.53Zm377.53-90c-12.92,0-25.28,9.6-25.28,34.3,0,21.37,8,33.32,24.9,33.32,14.3,0,25.29-11.56,25.29-34.29,0-21.77-7.85-33.33-24.91-33.33ZM900,259.34c-32,0-54.31-17.44-54.31-56.65,0-35.09,23.52-60.37,57.63-60.37,31.76,0,52.34,17.84,52.34,56.06,0,36.66-22.34,61-55.66,61ZM323.7,168.77c-6.27-2.34-15.88-4.69-23.72-4.69-9,0-15.88,2.35-15.88,10.58,0,19.41,49.79,7.46,49.79,47.44,0,27.05-22,37.43-46.66,37.43a115.63,115.63,0,0,1-33.12-4.9l1.76-23.71s16.47,5.49,30.19,5.49c9.6,0,17.45-2.94,17.45-11.37,0-20.78-50-7.45-50-47.25,0-24.89,21-35.09,44.11-35.09A96.58,96.58,0,0,1,329,147.61Zm186.8-24.1C504.23,178,488.16,230.52,478,257H447.38l-21.56-74.87h-.39L403.87,257H373.49C363.68,230.92,346,176.62,341,144.67h28.81l19,77.23h.38l22.74-77.23h28.82l22.15,76.65h.39l19.21-76.65Zm591-2.35c21.76,0,34.5,11.76,34.5,37.43V257h-29V185.64c0-11.56-3.34-19.21-15.69-19.21s-23.13,10.78-23.13,30.18V257h-28.41V185.64c0-10.79-3.53-19.21-15.89-19.21-12.93,0-22.93,12-22.93,31.36V257h-29.4V144.67c19.21-2.35,26.46,5.49,27.25,18,7.05-12.54,19.21-20.38,35.09-20.38,20.18,0,28.21,11.17,31.15,21.76C1069.93,152.9,1082.48,142.32,1101.5,142.32ZM639.67,168.77c-6.45-2.34-15.88-4.69-23.71-4.69-9,0-16.26,2.35-16.26,10.58,0,19.41,50.17,7.46,50.17,47.44,0,27.05-22.14,37.43-46.64,37.43a120.39,120.39,0,0,1-33.53-4.9l2.16-23.71s16.46,5.49,30.18,5.49c9.23,0,17.26-2.94,17.26-11.37,0-20.78-50.19-7.45-50.19-47.25,0-24.89,21.17-35.09,44.11-35.09A99.46,99.46,0,0,1,645,147.61Zm91.35,0c-6.27-2.34-15.87-4.69-23.72-4.69-9,0-16.07,2.35-16.07,10.58,0,19.41,50,7.46,50,47.44,0,27.05-22,37.43-46.65,37.43a115.59,115.59,0,0,1-33.13-4.9l2-23.71s16.26,5.49,30,5.49c9.61,0,17.44-2.94,17.44-11.37,0-20.78-50-7.45-50-47.25,0-24.89,21-35.09,44.12-35.09,13.71,0,24.88,2.56,31.36,4.91L731,168.77" transform="translate(-28.83 -17.33)" style="fill:#152168"/></g><path d="M59.66,199.55C-1.11,251.75,38.45,290,92,312.27l.3-59.57c-26.2-5.37-10.9-40.09-32.68-53.15Z" transform="translate(-28.83 -17.33)" style="stroke:#999;stroke-miterlimit:6.839733600616455;stroke-width:0.34518544347646873px;fill:url(#b)"/><path d="M313.45,115.45" transform="translate(-28.83 -17.33)" style="stroke:#999;stroke-miterlimit:6.839733600616455;stroke-width:0.42748335003852844px;fill:url(#c)"/><path d="M92.64,312.76c30.09-44.21,61.31-53.31,89.64-152.17l-111-98,22.93,39.61Z" transform="translate(-28.83 -17.33)" style="stroke:#000;stroke-miterlimit:6.839733600616455;stroke-width:0.13807417944805306px;fill:url(#d)"/><path d="M110.57,48.21c-6.18.34-12.29.6-17.65,3.28-.07-.13,0-.27.11,33.37L182,160.7s2-3.16,3-10.49c1.52-10.72,1.85-18.92,1.12-26.79-1.54-16.55-6-29.68-14.28-41.81-3.86-5.67-14.28-15.93-20.15-19.85a87.9,87.9,0,0,0-30-12.6A57.15,57.15,0,0,0,110.57,48.21Z" transform="translate(-28.83 -17.33)" style="stroke:#999;stroke-miterlimit:6.839733600616455;stroke-width:0.6903708869529375px;fill:url(#e)"/><path d="M92.41,346c.21-.1,1.75-244.54,1.18-244.82L68,59.7C67.3,64.06,146,128.82,182.37,161l6.34,6.27c15.55,15.37,25.49,27.65,32,41.15,5.88,12.17,7.71,20.84,7.2,34a82.65,82.65,0,0,1-11.56,38.91c-6.66,11.4-19.57,24.89-32.09,33.55-21.54,14.9-50.83,26-80.38,30.39-7.54,1.12-10.88,1.33-11.49.72Z" transform="translate(-28.83 -17.33)" style="fill:url(#f)"/><path d="M61.85,49A20.25,20.25,0,0,0,61,45.46a19.74,19.74,0,0,1,3.23-17.37c1.9-2.48,7-5.92,11-7.41,7.86-2.94,16.8-4.29,17.33-2.61,0,0,.22,67.24.58,67.16C93.45,86.26,63.74,59.88,61.85,49Z" transform="translate(-28.83 -17.33)" style="fill:url(#g)"/><path d="M93,253l.74-152.09c-6.21,3-12.49,2.7-19.92,20.62C68,136.74,65.5,139.31,50,145.18,23.2,153,23.74,176,52.09,193.54c15.9,10.38,18.82,16.9,21.83,34.83C76.76,240.83,80.05,250.58,93,253Z" transform="translate(-28.83 -17.33)" style="fill:#fff"/></svg>