<svg width="44" height="44" viewBox="0 0 44 44" fill="none" xmlns="http://www.w3.org/2000/svg">
<g  >
<path d="M29.3333 34V31.3333C29.3333 29.9188 28.7714 28.5623 27.7712 27.5621C26.771 26.5619 25.4145 26 24 26H13.3333C11.9188 26 10.5623 26.5619 9.5621 27.5621C8.5619 28.5623 8 29.9188 8 31.3333V34" stroke="#36989C" stroke-width="3" stroke-linecap="round" stroke-linejoin="round"/>
<path d="M18.6673 20.6667C21.6128 20.6667 24.0007 18.2789 24.0007 15.3333C24.0007 12.3878 21.6128 10 18.6673 10C15.7218 10 13.334 12.3878 13.334 15.3333C13.334 18.2789 15.7218 20.6667 18.6673 20.6667Z" stroke="#36989C" stroke-width="3" stroke-linecap="round" stroke-linejoin="round"/>
<path d="M36 34V31.2743C35.9991 30.0664 35.6058 28.893 34.8818 27.9384C34.1578 26.9838 33.1442 26.302 32 26" stroke="#36989C" stroke-width="3" stroke-linecap="round" stroke-linejoin="round"/>
<path d="M27 10C28.1442 10.2843 29.1584 10.9299 29.8826 11.8352C30.6069 12.7405 31 13.854 31 15C31 16.146 30.6069 17.2595 29.8826 18.1648C29.1584 19.0701 28.1442 19.7157 27 20" stroke="#36989C" stroke-width="3" stroke-linecap="round" stroke-linejoin="round"/>
</g>
</svg>
