<svg width="44" height="44" viewBox="0 0 44 44" fill="none" xmlns="http://www.w3.org/2000/svg">
<g   >
<path d="M33.2 14H10.8C9.2536 14 8 15.3431 8 17V32C8 33.6569 9.2536 35 10.8 35H33.2C34.7464 35 36 33.6569 36 32V17C36 15.3431 34.7464 14 33.2 14Z" stroke="#36989C" stroke-width="3" stroke-linecap="round" stroke-linejoin="round"/>
<path d="M27 35V11.8889C27 11.1227 26.7366 10.3879 26.2678 9.84614C25.7989 9.30436 25.163 9 24.5 9H19.5C18.837 9 18.2011 9.30436 17.7322 9.84614C17.2634 10.3879 17 11.1227 17 11.8889V35" stroke="#36989C" stroke-width="3" stroke-linecap="round" stroke-linejoin="round"/>
</g>
</svg>
