<svg width="10" height="16" viewBox="0 0 10 16" fill="none" xmlns="http://www.w3.org/2000/svg">
<path d="M5.66667 6.44444H9.16667L8.77778 8H5.66667V15H4.11111V8H1V6.44444H4.11111V4.98844C4.11111 3.60167 4.25578 3.09844 4.52644 2.59133C4.79167 2.09029 5.20141 1.68056 5.70244 1.41533C6.20956 1.14467 6.71278 1 8.09956 1C8.50556 1 8.86178 1.03889 9.16667 1.11667V2.55556H8.09956C7.06978 2.55556 6.75633 2.61622 6.43667 2.78733C6.20022 2.91333 6.02444 3.08911 5.89844 3.32556C5.72733 3.64522 5.66667 3.95867 5.66667 4.98844V6.44444Z" fill="#444444" stroke="#444444" stroke-width="0.5"/>
</svg>
