<svg width="14" height="14" viewBox="0 0 14 14" fill="none" xmlns="http://www.w3.org/2000/svg">
<path d="M13.9644 4.1151C13.9316 3.3714 13.8113 2.86011 13.6389 2.41707C13.4611 1.94679 13.1876 1.52575 12.8292 1.17574C12.4791 0.820287 12.0551 0.544081 11.59 0.369129C11.1442 0.196847 10.6354 0.0765814 9.89139 0.0437913C9.14182 0.00822422 8.90386 0 7.00272 0C5.10159 0 4.86363 0.00822422 4.11684 0.0410143C3.37282 0.0738044 2.86131 0.194177 2.41819 0.366352C1.94761 0.544081 1.5264 0.81751 1.17624 1.17574C0.820632 1.52575 0.544416 1.94957 0.369284 2.4144C0.19693 2.86011 0.0766137 3.36862 0.0438098 4.11233C0.00822768 4.86159 0 5.09945 0 6.99978C0 8.90011 0.00822768 9.13797 0.0410316 9.88445C0.0738355 10.6282 0.194259 11.1394 0.366613 11.5825C0.544416 12.0528 0.820632 12.4738 1.17624 12.8238C1.5264 13.1793 1.95039 13.4555 2.41541 13.6304C2.86131 13.8027 3.37004 13.923 4.11416 13.9558C4.86085 13.9887 5.09892 13.9968 7.00005 13.9968C8.90118 13.9968 9.13915 13.9887 9.88594 13.9558C10.63 13.923 11.1415 13.8027 11.5846 13.6304C12.5256 13.2667 13.2697 12.523 13.6335 11.5825C13.8057 11.1368 13.9262 10.6282 13.959 9.88445C13.9918 9.13797 14 8.90011 14 6.99978C14 5.09945 13.9972 4.86159 13.9644 4.1151ZM12.7034 9.82977C12.6733 10.5133 12.5584 10.8825 12.4627 11.1286C12.2274 11.7383 11.7433 12.2223 11.1332 12.4575C10.887 12.5532 10.5151 12.668 9.8339 12.698C9.09534 12.7309 8.87383 12.739 7.0055 12.739C5.13718 12.739 4.91289 12.7309 4.17699 12.698C3.49313 12.668 3.12385 12.5532 2.87766 12.4575C2.57409 12.3453 2.29777 12.1676 2.07348 11.9352C1.84097 11.7082 1.66317 11.4348 1.55097 11.1313C1.45523 10.8852 1.34037 10.5133 1.31034 9.83254C1.27743 9.09429 1.26931 8.87277 1.26931 7.00523C1.26931 5.13769 1.27743 4.9135 1.31034 4.17801C1.34037 3.49444 1.45523 3.12531 1.55097 2.87923C1.66317 2.57568 1.84097 2.29958 2.07626 2.07528C2.30322 1.84287 2.57676 1.66514 2.88044 1.5531C3.12663 1.4574 3.49869 1.34258 4.17977 1.31246C4.91834 1.27967 5.13995 1.27144 7.00817 1.27144C8.87928 1.27144 9.10079 1.27967 9.83668 1.31246C10.5205 1.34258 10.8898 1.4574 11.136 1.5531C11.4396 1.66514 11.7159 1.84287 11.9402 2.07528C12.1727 2.30225 12.3505 2.57568 12.4627 2.87923C12.5584 3.12531 12.6733 3.49711 12.7034 4.17801C12.7362 4.91627 12.7445 5.13769 12.7445 7.00523C12.7445 8.87277 12.7362 9.09151 12.7034 9.82977Z" fill="#444444"/>
<path d="M7.00189 3.4032C5.01602 3.4032 3.40479 5.01365 3.40479 6.99879C3.40479 8.98392 5.01602 10.5944 7.00189 10.5944C8.98786 10.5944 10.599 8.98392 10.599 6.99879C10.599 5.01365 8.98786 3.4032 7.00189 3.4032ZM7.00189 9.33116C5.71356 9.33116 4.66854 8.28668 4.66854 6.99879C4.66854 5.71089 5.71356 4.66642 7.00189 4.66642C8.29032 4.66642 9.33524 5.71089 9.33524 6.99879C9.33524 8.28668 8.29032 9.33116 7.00189 9.33116Z" fill="#444444"/>
<path d="M11.582 3.26186C11.582 3.72529 11.2059 4.10106 10.742 4.10106C10.2782 4.10106 9.9021 3.72529 9.9021 3.26186C9.9021 2.79832 10.2782 2.42267 10.742 2.42267C11.2059 2.42267 11.582 2.79832 11.582 3.26186Z" fill="#444444"/>
</svg>
