<svg width="16" height="16" viewBox="0 0 16 16" fill="none" xmlns="http://www.w3.org/2000/svg">
<path d="M7.8 5.84C8.5336 5.0904 9.4888 4.6 10.6 4.6C11.767 4.6 12.8861 5.06357 13.7113 5.88873C14.5364 6.71389 15 7.83305 15 9V15H13.4V9C13.4 8.25739 13.105 7.5452 12.5799 7.0201C12.0548 6.495 11.3426 6.2 10.6 6.2C9.85739 6.2 9.1452 6.495 8.6201 7.0201C8.095 7.5452 7.8 8.25739 7.8 9V15H6.2V5H7.8V5.84ZM2.2 3.4C1.88174 3.4 1.57652 3.27357 1.35147 3.04853C1.12643 2.82348 1 2.51826 1 2.2C1 1.88174 1.12643 1.57652 1.35147 1.35147C1.57652 1.12643 1.88174 1 2.2 1C2.51826 1 2.82348 1.12643 3.04853 1.35147C3.27357 1.57652 3.4 1.88174 3.4 2.2C3.4 2.51826 3.27357 2.82348 3.04853 3.04853C2.82348 3.27357 2.51826 3.4 2.2 3.4ZM1.4 5H3V15H1.4V5Z" fill="#444444" stroke="#444444" stroke-width="0.5"/>
</svg>
